<?xml version="1.0" standalone="no"?>
<!DOCTYPE svg PUBLIC "-//W3C//DTD SVG 20010904//EN"
 "http://www.w3.org/TR/2001/REC-SVG-20010904/DTD/svg10.dtd">
<svg version="1.0" xmlns="http://www.w3.org/2000/svg"
 width="668.000000pt" height="294.000000pt" viewBox="0 0 668.000000 294.000000"
 preserveAspectRatio="xMidYMid meet">

<g transform="translate(0.000000,294.000000) scale(0.100000,-0.100000)"
fill="#000000" stroke="none">
<path d="M2360 1565 l0 -545 135 0 135 0 0 152 0 153 153 -153 152 -152 180 0
180 0 -210 203 -209 203 134 145 c73 79 147 159 164 177 l30 32 -160 0 -159 0
-125 -141 -125 -142 -3 307 -2 306 -135 0 -135 0 0 -545z"/>
<path d="M3990 1560 l0 -550 140 0 140 0 0 550 0 550 -140 0 -140 0 0 -550z"/>
<path d="M3379 1849 l-236 -254 99 -3 98 -3 0 -159 c0 -87 5 -182 11 -210 16
-77 63 -139 132 -174 51 -26 71 -30 167 -34 60 -2 120 -2 134 2 25 6 26 9 26
90 l0 83 -57 6 c-61 6 -100 29 -120 68 -8 16 -13 74 -13 172 l0 147 135 0 135
0 0 105 0 105 -135 0 -134 0 -3 156 -3 156 -236 -253z"/>
</g>
</svg>
